<svg fill="#000000" height="200px" width="200px" version="1.1" id="Capa_1" xmlns="http://www.w3.org/2000/svg" xmlns:xlink="http://www.w3.org/1999/xlink" viewBox="-29.59 -29.59 355.06 355.06" xml:space="preserve" transform="matrix(-1, 0, 0, 1, 0, 0)rotate(0)"><g id="SVGRepo_bgCarrier" stroke-width="0" transform="translate(0,0), scale(1)"><rect x="-29.59" y="-29.59" width="355.06" height="355.06" rx="177.53" fill="#7ed0ec" strokewidth="0"></rect></g><g id="SVGRepo_tracerCarrier" stroke-linecap="round" stroke-linejoin="round" stroke="#CCCCCC" stroke-width="4.7341120000000005"></g><g id="SVGRepo_iconCarrier"> <path d="M169.642,229.816h36.515c-5.058,26-28.037,46.125-55.341,46.125c-31.107,0-56.374-25.521-56.374-56.629V116.156 c3-2.903,5-7.293,5-12.206V15.828C99.441,7.086,92.683,0,83.941,0s-15.5,7.086-15.5,15.828v88.122c0,4.913,2,9.303,5,12.206v103.156 c0,42.221,34.731,76.569,76.952,76.569c41.719,0,76.304-34.296,76.804-76.496c0.002-0.331,0.244-38.913,0.244-39.301v-31.431 L169.642,229.816z"></path> </g></svg>
